<svg width="630" height="116" viewBox="0 0 630 116" fill="none" xmlns="http://www.w3.org/2000/svg">
<path fill-rule="evenodd" clip-rule="evenodd" d="M581 24.5C581 38.031 591.969 49 605.5 49C619.031 49 630 38.031 630 24.5C630 10.969 619.031 -4.79471e-07 605.5 -1.07093e-06C591.969 -1.66239e-06 581 10.969 581 24.5ZM593 24.5C593 31.9558 599.044 38 606.5 38C613.956 38 620 31.9558 620 24.5C620 17.0442 613.956 11 606.5 11C599.044 11 593 17.0442 593 24.5Z" fill="#68FFE5"/>
<path d="M581.5 25L419 25L333.5 113.5L-53 113.5" stroke="#68FFE5" stroke-width="4"/>
</svg>
