<svg width="1874" height="719" viewBox="0 0 1874 719" fill="none" xmlns="http://www.w3.org/2000/svg">
<path fill-rule="evenodd" clip-rule="evenodd" d="M387.5 295C401.031 295 412 284.031 412 270.5C412 256.969 401.031 246 387.5 246C373.969 246 363 256.969 363 270.5C363 284.031 373.969 295 387.5 295ZM387.5 283C394.956 283 401 276.956 401 269.5C401 262.044 394.956 256 387.5 256C380.044 256 374 262.044 374 269.5C374 276.956 380.044 283 387.5 283Z" fill="url(#paint0_linear_213_448)"/>
<path fill-rule="evenodd" clip-rule="evenodd" d="M1859.63 698.462C1867.34 687.343 1864.58 672.079 1853.46 664.368C1842.34 656.657 1827.08 659.42 1819.37 670.538C1811.66 681.657 1814.42 696.922 1825.54 704.633C1836.66 712.344 1851.92 709.581 1859.63 698.462ZM1849.77 691.624C1854.02 685.497 1852.5 677.086 1846.37 672.837C1840.24 668.588 1831.83 670.11 1827.58 676.237C1823.34 682.364 1824.86 690.775 1830.99 695.024C1837.11 699.273 1845.52 697.75 1849.77 691.624Z" fill="url(#paint1_linear_213_448)"/>
<path d="M10 12.5H350L560 310.5H884.5L1118.5 685H1817.5" stroke="#68FFE5" stroke-width="7"/>
<path d="M4.5 121.5H281L377 252" stroke="#68FFE5" stroke-width="7"/>
<rect width="88" height="25" fill="#68FFE5"/>
<rect y="109" width="88" height="25" fill="#68FFE5"/>
<defs>
<linearGradient id="paint0_linear_213_448" x1="387.5" y1="246" x2="408" y2="314" gradientUnits="userSpaceOnUse">
<stop stop-color="#68FFE5"/>
<stop offset="1" stop-color="#3DC9F5"/>
</linearGradient>
<linearGradient id="paint1_linear_213_448" x1="1819.37" y1="670.538" x2="1886.93" y2="692.444" gradientUnits="userSpaceOnUse">
<stop stop-color="#68FFE5"/>
<stop offset="1" stop-color="#3DC9F5"/>
</linearGradient>
</defs>
</svg>
