<svg width="174" height="174" viewBox="0 0 174 174" fill="none" xmlns="http://www.w3.org/2000/svg">
<path d="M111.491 98.7185C111.491 103.055 112.76 104.785 116.081 104.785C123.481 104.785 128.193 95.6209 128.193 80.3806C128.193 57.0865 110.726 45.9351 88.9178 45.9351C66.4831 45.9351 46.0778 60.5558 46.0778 88.1866C46.0778 114.578 63.9278 128.951 91.3403 128.951C100.648 128.951 106.895 127.96 116.453 124.862L118.503 133.159C109.068 136.138 98.985 137 91.2128 137C55.2578 137 36 117.795 36 88.1815C36 58.3204 58.3178 38 89.0453 38C121.048 38 138 56.5857 138 79.3842C138 98.7134 131.758 113.458 112.123 113.458C103.193 113.458 97.3328 109.989 96.5678 102.301C94.2728 110.851 88.1528 113.458 79.86 113.458C68.7675 113.458 59.46 105.151 59.46 88.4293C59.46 71.5782 67.6253 61.1702 82.2878 61.1702C90.0653 61.1702 94.9103 64.1439 97.0672 68.8523L100.77 62.2854H111.48V98.7185H111.491ZM95.8134 82.3631C95.8134 75.5535 90.5806 72.6985 86.2456 72.6985C81.5281 72.6985 76.3059 76.4105 76.3059 87.3193C76.3059 95.9926 80.2584 100.825 86.2456 100.825C90.4531 100.825 95.8134 98.2229 95.8134 91.0364V82.3631Z" fill="url(#paint0_linear_197_291)"/>
<circle cx="87" cy="87" r="83.5" stroke="url(#paint1_linear_197_291)" stroke-width="7"/>
<defs>
<linearGradient id="paint0_linear_197_291" x1="87" y1="38" x2="87" y2="137" gradientUnits="userSpaceOnUse">
<stop stop-color="#3DC9F5"/>
<stop offset="1" stop-color="#68FFE5"/>
</linearGradient>
<linearGradient id="paint1_linear_197_291" x1="87" y1="0" x2="87" y2="174" gradientUnits="userSpaceOnUse">
<stop stop-color="#0CFAD0"/>
<stop offset="1" stop-color="#3DC9F5"/>
</linearGradient>
</defs>
</svg>
