<svg width="52" height="52" viewBox="0 0 52 52" fill="none" xmlns="http://www.w3.org/2000/svg">
<path d="M23.1111 8.66667C23.8773 8.66667 24.6121 8.97103 25.1539 9.5128C25.6956 10.0546 26 10.7894 26 11.5556C26 12.3217 25.6956 13.0565 25.1539 13.5983C24.6121 14.1401 23.8773 14.4444 23.1111 14.4444H5.77778V46.2222H37.5556V28.8889C37.5556 28.1227 37.8599 27.3879 38.4017 26.8461C38.9435 26.3044 39.6783 26 40.4444 26C41.2106 26 41.9454 26.3044 42.4872 26.8461C43.029 27.3879 43.3333 28.1227 43.3333 28.8889V46.2222C43.3333 47.7546 42.7246 49.2242 41.6411 50.3077C40.5575 51.3913 39.0879 52 37.5556 52H5.77778C4.24542 52 2.77582 51.3913 1.69227 50.3077C0.608728 49.2242 0 47.7546 0 46.2222V14.4444C0 12.9121 0.608728 11.4425 1.69227 10.3589C2.77582 9.27539 4.24542 8.66667 5.77778 8.66667H23.1111ZM49.1111 0C49.8773 0 50.6121 0.304364 51.1539 0.846136C51.6956 1.38791 52 2.12271 52 2.88889V17.3333C52 18.0995 51.6956 18.8343 51.1539 19.3761C50.6121 19.9179 49.8773 20.2222 49.1111 20.2222C48.3449 20.2222 47.6101 19.9179 47.0684 19.3761C46.5266 18.8343 46.2222 18.0995 46.2222 17.3333V9.86267L22.2647 33.8202C21.7198 34.3465 20.9901 34.6376 20.2326 34.6311C19.4752 34.6245 18.7506 34.3207 18.215 33.785C17.6793 33.2494 17.3755 32.5248 17.3689 31.7674C17.3624 31.0099 17.6535 30.2802 18.1798 29.7353L42.1373 5.77778H34.6667C33.9005 5.77778 33.1657 5.47341 32.6239 4.93164C32.0821 4.38987 31.7778 3.65507 31.7778 2.88889C31.7778 2.12271 32.0821 1.38791 32.6239 0.846136C33.1657 0.304364 33.9005 0 34.6667 0H49.1111Z" fill="white"/>
</svg>
