<svg width="60" height="60" viewBox="0 0 60 60" fill="none" xmlns="http://www.w3.org/2000/svg">
<path d="M15.7876 15.4399C15.1626 13.8449 15.1876 12.0224 15.4651 10.3549C17.3756 10.9273 19.1698 11.8329 20.7651 13.0299C21.4651 13.5649 22.3826 13.7374 23.2376 13.4799C25.4315 12.8235 27.7101 12.4933 30.0001 12.4999C32.4026 12.4999 34.6851 12.8499 36.7576 13.4774C37.6126 13.7374 38.5301 13.5624 39.2276 13.0274C40.8221 11.8307 42.6155 10.9251 44.5251 10.3524C44.8026 12.0199 44.8251 13.8424 44.2051 15.4349C43.8301 16.3949 44.0176 17.4999 44.7251 18.2849C46.5351 20.2924 47.5001 22.5999 47.5001 24.9999C47.5001 30.2849 42.5751 35.4674 34.6651 37.0449C32.6851 37.4399 31.9126 39.9324 33.4276 41.3599C34.4001 42.2749 35.0001 43.5649 35.0001 44.9999V52.4999C35.0001 53.1629 35.2635 53.7988 35.7323 54.2676C36.2012 54.7365 36.837 54.9999 37.5001 54.9999C38.1631 54.9999 38.799 54.7365 39.2678 54.2676C39.7367 53.7988 40.0001 53.1629 40.0001 52.4999V44.9999C40.0001 43.5749 39.7001 42.2199 39.1651 40.9924C46.7076 38.3749 52.5001 32.4824 52.5001 24.9999C52.5001 21.6324 51.2901 18.5374 49.2826 15.9449C49.8076 13.8949 49.7601 11.8299 49.5601 10.2449C49.3826 8.82488 49.1351 6.96488 48.1351 5.85488C46.6476 4.20738 44.1851 5.17738 42.4351 5.77488C40.5578 6.4101 38.7718 7.2884 37.1226 8.38738C34.7951 7.79342 32.4021 7.49523 30.0001 7.49988C27.5151 7.49988 25.1176 7.81238 22.8726 8.38988C21.2234 7.29088 19.4374 6.41258 17.5601 5.77738C15.8101 5.17738 13.3451 4.20738 11.8576 5.85488C10.8376 6.98488 10.6251 8.69738 10.4426 10.1524L10.4301 10.2474C10.2301 11.8349 10.1851 13.9024 10.7101 15.9549C8.71008 18.5449 7.50008 21.6349 7.50008 24.9999C7.50008 32.4799 13.2926 38.3749 20.8351 40.9924C20.2891 42.2406 20.005 43.5875 20.0001 44.9499L19.5801 45.0349C17.7876 45.2824 16.6401 45.0599 15.8601 44.7299C13.9601 43.9249 12.9801 41.8974 11.7851 40.3474C11.0401 39.3849 9.95508 38.1824 8.29008 37.6274C7.97852 37.5236 7.64958 37.4823 7.32203 37.5057C6.99449 37.529 6.67475 37.6167 6.38109 37.7637C5.788 38.0604 5.33711 38.5807 5.12759 39.2099C4.91806 39.8391 4.96708 40.5258 5.26386 41.1189C5.56064 41.712 6.08086 42.1629 6.71008 42.3724C8.10508 42.8374 9.07008 45.2274 9.95508 46.2874C10.8876 47.4074 12.1276 48.5774 13.9051 49.3324C15.6101 50.0574 17.6126 50.3149 20.0001 50.0224V52.4999C20.0001 53.1629 20.2635 53.7988 20.7323 54.2676C21.2012 54.7365 21.837 54.9999 22.5001 54.9999C23.1631 54.9999 23.799 54.7365 24.2678 54.2676C24.7367 53.7988 25.0001 53.1629 25.0001 52.4999V44.9999C25.0001 43.5649 25.6001 42.2749 26.5726 41.3599C28.0901 39.9299 27.3151 37.4399 25.3351 37.0449C17.4226 35.4674 12.5001 30.2849 12.5001 24.9999C12.5001 22.6049 13.4626 20.2974 15.2701 18.2899C15.9776 17.5049 16.1626 16.3999 15.7876 15.4399Z" fill="white"/>
</svg>
