<svg width="258" height="148" viewBox="0 0 258 148" fill="none" xmlns="http://www.w3.org/2000/svg">
<path d="M30.4724 147.356C18.5737 147.356 8.4162 145.699 0 142.385V122.504C3.48256 123.945 7.54556 125.169 12.189 126.178C16.9775 127.042 21.6935 127.474 26.3369 127.474C36.0591 127.474 42.8065 125.529 46.5793 121.639C50.4972 117.606 52.4561 111.194 52.4561 102.406V6.02388H76.1811V106.296C76.1811 119.55 72.3358 129.707 64.6451 136.767C57.0995 143.826 45.7087 147.356 30.4724 147.356Z" fill="white"/>
<path d="M110.626 0L83.4183 55.7143V79.3507L110.626 33.7662L165.041 138.442H185.447L110.626 0Z" fill="white"/>
<path d="M178.645 0L151.437 55.7143L161.64 72.5974L178.645 33.7662L237.594 138.442H258L178.645 0Z" fill="white"/>
</svg>
