<svg width="174" height="174" viewBox="0 0 174 174" fill="none" xmlns="http://www.w3.org/2000/svg">
<path d="M103.338 107.648L112.035 99.2058C113.206 98.0828 114.688 97.3141 116.301 96.993C117.914 96.6719 119.588 96.8121 121.12 97.3968L131.72 101.505C133.268 102.115 134.596 103.156 135.535 104.498C136.475 105.839 136.985 107.42 137 109.042V127.887C136.991 128.99 136.752 130.08 136.298 131.092C135.843 132.103 135.182 133.015 134.355 133.772C133.528 134.529 132.552 135.116 131.485 135.497C130.418 135.878 129.283 136.045 128.148 135.989C53.873 131.505 38.886 70.4497 36.0517 47.083C35.9201 45.9355 36.0403 44.774 36.4044 43.6749C36.7685 42.5758 37.3682 41.5639 38.1641 40.7059C38.96 39.8479 39.934 39.1632 41.0221 38.6969C42.1101 38.2305 43.2876 37.9931 44.477 38.0002H63.2301C64.9035 38.005 66.5372 38.4956 67.9211 39.409C69.3049 40.3225 70.3756 41.6169 70.9953 43.1257L75.2274 53.4146C75.8496 54.896 76.0084 56.5226 75.6838 58.091C75.3593 59.6595 74.5658 61.1004 73.4026 62.2337L64.7055 70.6758C64.7055 70.6758 69.7141 103.578 103.338 107.648Z" fill="url(#paint0_linear_197_297)"/>
<circle cx="87" cy="87" r="83.5" stroke="url(#paint1_linear_197_297)" stroke-width="7"/>
<defs>
<linearGradient id="paint0_linear_197_297" x1="86.5" y1="38" x2="86.5" y2="136" gradientUnits="userSpaceOnUse">
<stop stop-color="#68FFE5"/>
<stop offset="1" stop-color="#3DC9F5"/>
</linearGradient>
<linearGradient id="paint1_linear_197_297" x1="87" y1="0" x2="87" y2="174" gradientUnits="userSpaceOnUse">
<stop stop-color="#0CFAD0"/>
<stop offset="1" stop-color="#3DC9F5"/>
</linearGradient>
</defs>
</svg>
