<svg width="128" height="87" viewBox="0 0 128 87" fill="none" xmlns="http://www.w3.org/2000/svg">
<path d="M13.949 45.8447C14.7496 43.9729 16.916 43.1046 18.7877 43.9052L44.0155 54.6961C45.8873 55.4967 46.7556 57.6631 45.955 59.5349C45.1544 61.4066 42.988 62.2749 41.1162 61.4743L15.8884 50.6834C14.0167 49.8828 13.1483 47.7164 13.949 45.8447Z" fill="black" fill-opacity="0.78"/>
<path d="M38.2809 55.8232C39.0815 53.9514 41.2479 53.0831 43.1196 53.8837L44.039 54.277C45.9108 55.0776 46.7791 57.244 45.9785 59.1157C45.1779 60.9875 43.0115 61.8558 41.1397 61.0552L40.2203 60.662C38.3486 59.8613 37.4803 57.695 38.2809 55.8232Z" fill="black" fill-opacity="0.78"/>
<path d="M33.4076 3.77876C34.2083 1.90701 36.3747 1.03868 38.2464 1.8393L63.4742 12.6302C65.346 13.4308 66.2143 15.5972 65.4137 17.4689C64.6131 19.3407 62.4467 20.209 60.5749 19.4084L35.3471 8.61753C33.4754 7.81691 32.607 5.65052 33.4076 3.77876Z" fill="black" fill-opacity="0.78"/>
<path d="M57.7347 14.1792C58.5353 12.3074 60.7017 11.4391 62.5734 12.2397L63.5217 12.6453C65.3934 13.4459 66.2618 15.6123 65.4612 17.4841C64.6605 19.3558 62.4941 20.2241 60.6224 19.4235L59.6741 19.0179C57.8024 18.2173 56.9341 16.0509 57.7347 14.1792Z" fill="black" fill-opacity="0.78"/>
<path d="M34.626 9.52002L58.447 19.9419L43.8409 53.3266L20.0199 42.9047L34.626 9.52002Z" fill="black"/>
<path d="M52.8892 31.652L48.2757 41.7147L109.747 71.9377C114.218 74.0974 118.543 76.677 122.706 69.1381C126.622 62.0448 122.324 57.7058 119.627 56.0351L52.8892 31.652Z" fill="black" fill-opacity="0.78"/>
<path d="M51.5708 36.2735L48.5517 42.1396L113.38 73.596C116.11 74.4709 118.566 74.7103 121.204 71.3689C124.464 67.2401 125.013 64.1069 117.316 62.306L51.5708 36.2735Z" fill="black" fill-opacity="0.78"/>
<path d="M0.480128 79.8673C0.511328 77.1905 2.70662 75.0458 5.38346 75.077L54.6947 75.6518C57.3716 75.683 59.5163 77.8783 59.4851 80.5551C59.4539 83.2319 57.2586 85.3766 54.5817 85.3454L5.27046 84.7707C2.59363 84.7395 0.448927 82.5442 0.480128 79.8673Z" fill="black" fill-opacity="0.78"/>
<path fill-rule="evenodd" clip-rule="evenodd" d="M59.485 80.5549C59.4581 82.8676 57.2662 84.717 54.5894 84.6858L5.27813 84.111C2.6013 84.0798 0.453147 82.1798 0.480103 79.8672C0.448902 82.544 2.5936 84.7393 5.27044 84.7705L54.5817 85.3453C57.2585 85.3765 59.4538 83.2318 59.485 80.5549Z" fill="black" fill-opacity="0.78"/>
<path d="M43.3589 76.9151C40.2362 79.9222 42.3297 85.2029 46.6646 85.2534L54.5818 85.3457C57.2586 85.3769 59.4539 83.2322 59.4851 80.5553C59.5163 77.8785 57.3716 75.6832 54.6948 75.652L46.7776 75.5597C45.5042 75.5449 44.2761 76.0317 43.3589 76.9151Z" fill="black" fill-opacity="0.78"/>
<path d="M8.31465 70.7243C8.33163 69.2674 9.52642 68.1002 10.9833 68.1172L48.5563 68.5551C50.0132 68.5721 51.1805 69.7669 51.1635 71.2237L51.1431 72.9724C51.1261 74.4292 49.9313 75.5965 48.4745 75.5795L10.9014 75.1416C9.44455 75.1246 8.27729 73.9298 8.29427 72.4729L8.31465 70.7243Z" fill="black"/>
<path d="M43.4656 68.6362L51.1925 68.7263L51.1122 75.6102L43.3854 75.5201L43.4656 68.6362Z" fill="black" fill-opacity="0.78"/>
<path d="M54.0858 17.9297L58.6837 19.9245L44.1905 53.3296L39.5927 51.3348L54.0858 17.9297Z" fill="black" fill-opacity="0.78"/>
</svg>
