<svg width="52" height="52" viewBox="0 0 52 52" fill="none" xmlns="http://www.w3.org/2000/svg">
<path d="M3 43.25C3 40.2 4.2116 37.2749 6.36827 35.1183C8.52494 32.9616 11.45 31.75 14.5 31.75H37.5C40.55 31.75 43.4751 32.9616 45.6317 35.1183C47.7884 37.2749 49 40.2 49 43.25C49 44.775 48.3942 46.2375 47.3159 47.3159C46.2375 48.3942 44.775 49 43.25 49H8.75C7.22501 49 5.76247 48.3942 4.68414 47.3159C3.6058 46.2375 3 44.775 3 43.25Z" stroke="black" stroke-width="6" stroke-linejoin="round"/>
<path d="M26 20.25C30.7635 20.25 34.625 16.3885 34.625 11.625C34.625 6.86154 30.7635 3 26 3C21.2365 3 17.375 6.86154 17.375 11.625C17.375 16.3885 21.2365 20.25 26 20.25Z" stroke="black" stroke-width="6"/>
</svg>
