<svg width="150" height="153" viewBox="0 0 150 153" fill="none" xmlns="http://www.w3.org/2000/svg">
<path d="M75.2829 0.689453C72.4406 0.693084 69.6006 0.858478 66.7765 1.18486C70.7467 3.96184 74.5321 7.00229 78.108 10.2864L81.1081 13.0683L78.2017 15.9264C75.72 18.3448 73.3705 20.8998 71.1641 23.5798L70.0516 24.9453C71.8369 24.7475 73.6309 24.6415 75.4267 24.6277C83.254 24.7191 90.9554 26.6416 97.9336 30.2464C104.912 33.8511 110.979 39.041 115.665 45.4137C120.351 51.7863 123.529 59.1703 124.954 66.993C126.379 74.8157 126.011 82.8668 123.88 90.5219C121.749 98.1769 117.911 105.23 112.665 111.134C107.418 117.039 100.904 121.635 93.6274 124.568C86.3508 127.5 78.5073 128.69 70.7053 128.044C62.9033 127.398 55.3525 124.935 48.6386 120.844C44.8193 121.297 40.9772 121.522 37.1321 121.518H31.757C31.9127 127.616 32.4639 133.696 33.407 139.721C43.0989 146.36 54.1871 150.599 65.7821 152.096C77.3772 153.594 89.1561 152.309 100.174 148.344C111.192 144.379 121.142 137.845 129.226 129.266C137.311 120.687 143.304 110.301 146.725 98.943C150.146 87.5846 150.9 75.5695 148.926 63.8615C146.952 52.1536 142.306 41.0787 135.36 31.5254C128.413 21.9722 119.36 14.2065 108.927 8.85139C98.4941 3.49631 86.9712 0.700903 75.2829 0.689453ZM51.0636 4.78608C45.2974 6.80796 39.7911 9.52678 34.6633 12.8841C38.4909 13.5628 42.2749 14.4748 45.9948 15.6151C47.5024 11.9204 49.1942 8.306 51.0636 4.78608ZM58.8951 5.24338C56.5381 9.32341 54.4603 13.5634 52.6762 17.9334C56.0915 19.147 59.4402 20.5463 62.7076 22.1253C63.5523 21.0048 64.4492 19.926 65.3952 18.8924C66.8577 17.076 68.3453 15.342 69.8703 13.7034C66.4203 10.6145 62.7521 7.78694 58.8951 5.24338ZM29.2507 19.21C28.8704 24.1481 28.8704 29.1087 29.2507 34.0468C32.9195 33.634 36.7258 33.4117 40.5759 33.3672C41.3764 29.6138 42.3779 25.9075 43.576 22.265C38.8782 20.9027 34.091 19.8818 29.2507 19.21ZM22.6255 22.7096C18.1406 27.2286 14.2385 32.308 11.0127 37.8259C14.8676 36.661 18.7844 35.7195 22.7443 35.0058C22.48 30.9125 22.4404 26.8074 22.6255 22.7096ZM50.1636 24.5325C49.2698 27.308 48.5073 30.1725 47.7886 33.0877C51.0684 30.995 54.5697 29.2842 58.2263 27.9876C55.5825 26.7173 52.9449 25.5741 50.1636 24.5325ZM39.3759 39.9599C36.1262 40.0056 32.8816 40.2346 29.6569 40.6459C30.0569 43.9676 30.6382 47.2386 31.3569 50.5159C33.5845 46.6699 36.2786 43.1235 39.3759 39.9599ZM23.438 40.83C17.8959 41.8566 12.4538 43.3783 7.17516 45.3776H6.68765V45.8794C8.88166 51.4792 11.5304 56.8839 14.6066 62.0372L14.8753 62.4882L15.3253 62.177C18.7928 59.656 22.4125 57.3587 26.1631 55.2984L26.5193 55.0761V54.7205C25.394 50.3463 24.5423 45.9042 23.9693 41.4207V40.8364L23.438 40.83ZM4.02509 51.8941L3.63133 53.1644C1.41445 60.0627 0.191338 67.2507 0 74.505L0 75.8324L0.89377 74.867C4.00802 71.603 7.31416 68.5339 10.794 65.6766L11.1502 65.4035L10.8815 64.997C8.49133 61.1854 6.35122 57.2178 4.4751 53.1199L4.02509 51.8941ZM27.5881 59.8524L26.4631 60.4875C23.5568 62.2214 20.6505 64.1268 17.8691 66.1339L17.4629 66.4514L17.7754 66.8579C19.7067 69.6335 21.8067 72.3645 24.0005 74.9622L24.8568 76.0102V74.6891C25.0117 70.0545 25.7769 65.4619 27.1319 61.0337L27.5881 59.8524ZM13.7503 69.4112L13.3003 69.7287C9.25475 73.1036 5.46673 76.7853 1.96879 80.742L1.60629 81.1104L2.0188 81.4724C5.91146 84.9462 10.0729 88.0961 14.4628 90.8915L14.9128 91.209L15.1816 90.7009C17.1745 87.1019 19.372 83.6239 21.763 80.2847V79.9671L21.4942 79.6496C18.8331 76.5363 16.3498 73.2706 14.0566 69.8685L13.7503 69.4112ZM25.3443 82.5648L24.588 83.6573C22.5136 86.5812 20.6002 89.6197 18.8567 92.7588L18.5879 93.2161L19.0317 93.4892C22.2 95.2831 25.4588 96.907 28.7944 98.3543L30.0007 98.9005L29.4632 97.6747C27.453 93.2977 26.0641 88.6531 25.3381 83.8796L25.3443 82.5648ZM0.493761 85.6135V86.8838C1.42955 94.1829 3.42196 101.301 6.40639 108.008L6.8939 109.19L7.34391 107.958C8.82315 103.608 10.5876 99.3644 12.6253 95.2548L12.9815 94.8547L12.5815 94.5816C8.7146 92.1058 5.00699 89.3819 1.48128 86.4265L0.493761 85.6135ZM16.3879 97.0777L16.1691 97.5858C13.6872 102.648 11.6319 107.916 10.0252 113.331V113.839H10.5627C16.0645 115.378 21.6847 116.441 27.3631 117.015L27.8131 117.059V116.513C27.9028 112.143 28.245 107.783 28.8381 103.454V103.042H28.4381C24.4718 101.394 20.6119 99.4933 16.8816 97.3508L16.3879 97.0777ZM32.2882 104.502V105.226C31.7713 109.077 31.4563 112.952 31.3444 116.837V117.332H37.1633C38.9571 117.332 41.0634 117.421 43.076 117.332H44.3822L43.3447 116.513C39.3581 113.19 35.9006 109.26 33.0945 104.864L32.2882 104.502ZM11.7253 117.84L12.444 118.933C16.7378 125.516 22.0135 131.381 28.0819 136.316L29.0631 137.136V135.859C28.3939 130.939 27.9767 125.987 27.8131 121.022V120.571H27.3631C22.5195 120.103 17.7154 119.282 12.9878 118.113L11.7253 117.84Z" fill="url(#paint0_linear_196_223)"/>
<defs>
<linearGradient id="paint0_linear_196_223" x1="75" y1="0.689453" x2="75" y2="152.703" gradientUnits="userSpaceOnUse">
<stop stop-color="#68FFE5"/>
<stop offset="1" stop-color="#3DC9F5"/>
</linearGradient>
</defs>
</svg>
