<svg width="150" height="143" viewBox="0 0 150 143" fill="none" xmlns="http://www.w3.org/2000/svg">
<path d="M70 71.339C70 65.6656 68.0469 60.8218 64.1406 56.8077C60.2344 52.7935 55.5208 50.7864 50 50.7864C44.4792 50.7864 39.7656 52.7935 35.8594 56.8077C31.9531 60.8218 30 65.6656 30 71.339C30 77.0123 31.9531 81.8561 35.8594 85.8703C39.7656 89.8845 44.4792 91.8916 50 91.8916C55.5208 91.8916 60.2344 89.8845 64.1406 85.8703C68.0469 81.8561 70 77.0123 70 71.339ZM130 112.444C130 109.661 129.01 107.252 127.031 105.219C125.052 103.185 122.708 102.168 120 102.168C117.292 102.168 114.948 103.185 112.969 105.219C110.99 107.252 110 109.661 110 112.444C110 115.281 110.977 117.703 112.93 119.71C114.883 121.717 117.24 122.72 120 122.72C122.76 122.72 125.117 121.717 127.07 119.71C129.023 117.703 130 115.281 130 112.444ZM130 30.2338C130 27.4506 129.01 25.0421 127.031 23.0083C125.052 20.9744 122.708 19.9575 120 19.9575C117.292 19.9575 114.948 20.9744 112.969 23.0083C110.99 25.0421 110 27.4506 110 30.2338C110 33.0705 110.977 35.4924 112.93 37.4995C114.883 39.5065 117.24 40.5101 120 40.5101C122.76 40.5101 125.117 39.5065 127.07 37.4995C129.023 35.4924 130 33.0705 130 30.2338ZM100 64.0332V78.8856C100 79.4209 99.8177 79.9427 99.4531 80.4512C99.0885 80.9596 98.6719 81.2406 98.2031 81.2941L86.0938 83.2209C85.5208 85.0942 84.6875 87.1281 83.5938 89.3225C85.3646 91.8916 87.7083 94.9691 90.625 98.5551C90.9896 99.1438 91.1719 99.6791 91.1719 100.161C91.1719 100.803 90.9896 101.311 90.625 101.686C89.4271 103.292 87.2786 105.687 84.1797 108.872C81.0807 112.056 79.0365 113.648 78.0469 113.648C77.474 113.648 76.9271 113.461 76.4062 113.086L67.4219 105.861C65.4948 106.878 63.4896 107.707 61.4062 108.35C60.8333 114.13 60.2344 118.278 59.6094 120.794C59.2448 122.078 58.4635 122.72 57.2656 122.72H42.7344C42.1615 122.72 41.6406 122.52 41.1719 122.118C40.7031 121.717 40.4427 121.249 40.3906 120.713L38.5938 108.43C36.8229 107.895 34.8698 107.065 32.7344 105.941L23.5156 113.086C23.151 113.461 22.6302 113.648 21.9531 113.648C21.3802 113.648 20.8333 113.434 20.3125 113.006C12.8125 105.888 9.0625 101.606 9.0625 100.161C9.0625 99.6791 9.24479 99.1706 9.60938 98.6354C10.1302 97.8861 11.1979 96.4677 12.8125 94.3803C14.4271 92.293 15.651 90.6605 16.4844 89.4831C15.2865 87.1281 14.375 84.9337 13.75 82.8998L1.875 80.973C1.35417 80.9195 0.911458 80.6652 0.546875 80.2103C0.182292 79.7554 0 79.2335 0 78.6448V63.7923C0 63.2571 0.182292 62.7353 0.546875 62.2268C0.911458 61.7183 1.32812 61.4373 1.79688 61.3838L13.9062 59.457C14.4792 57.5837 15.3125 55.5499 16.4062 53.3555C14.6354 50.7864 12.2917 47.7089 9.375 44.1229C9.01042 43.5341 8.82812 42.9989 8.82812 42.5172C8.82812 41.8749 9.01042 41.3397 9.375 40.9115C10.5208 39.3058 12.6562 36.9241 15.7812 33.7663C18.9062 30.6085 20.9635 29.0295 21.9531 29.0295C22.526 29.0295 23.0729 29.2169 23.5938 29.5915L32.5781 36.817C34.349 35.8536 36.3542 34.9973 38.5938 34.248C39.1667 28.4676 39.7656 24.3463 40.3906 21.8843C40.7552 20.5998 41.5365 19.9575 42.7344 19.9575H57.2656C57.8385 19.9575 58.3594 20.1582 58.8281 20.5596C59.2969 20.961 59.5573 21.4294 59.6094 21.9646L61.4062 34.248C63.1771 34.7832 65.1302 35.6128 67.2656 36.7368L76.4844 29.5915C76.901 29.2169 77.4219 29.0295 78.0469 29.0295C78.6198 29.0295 79.1667 29.2436 79.6875 29.6718C87.1875 36.7903 90.9375 41.0721 90.9375 42.5172C90.9375 42.9454 90.7552 43.4538 90.3906 44.0426C89.7656 44.8989 88.6719 46.344 87.1094 48.3779C85.5469 50.4117 84.375 52.0174 83.5938 53.1949C84.7917 55.764 85.6771 57.9584 86.25 59.7781L98.125 61.6247C98.6458 61.7317 99.0885 62.0127 99.4531 62.4676C99.8177 62.9226 100 63.4444 100 64.0332ZM150 106.824V118.064C150 118.92 146.12 119.75 138.359 120.553C137.734 121.998 136.953 123.389 136.016 124.728C138.672 130.776 140 134.469 140 135.807C140 136.021 139.896 136.208 139.688 136.369C133.333 140.169 130.104 142.069 130 142.069C129.583 142.069 128.385 140.811 126.406 138.295C124.427 135.78 123.073 133.96 122.344 132.836C121.302 132.943 120.521 132.997 120 132.997C119.479 132.997 118.698 132.943 117.656 132.836C116.927 133.96 115.573 135.78 113.594 138.295C111.615 140.811 110.417 142.069 110 142.069C109.896 142.069 106.667 140.169 100.312 136.369C100.104 136.208 100 136.021 100 135.807C100 134.469 101.328 130.776 103.984 124.728C103.047 123.389 102.266 121.998 101.641 120.553C93.8802 119.75 90 118.92 90 118.064V106.824C90 105.968 93.8802 105.138 101.641 104.336C102.318 102.783 103.099 101.392 103.984 100.161C101.328 94.1127 100 90.4197 100 89.0816C100 88.8675 100.104 88.6802 100.312 88.5197C100.521 88.4126 101.432 87.8774 103.047 86.914C104.661 85.9506 106.198 85.0407 107.656 84.1843C109.115 83.328 109.896 82.8998 110 82.8998C110.417 82.8998 111.615 84.1442 113.594 86.633C115.573 89.1218 116.927 90.9282 117.656 92.0521C118.698 91.9451 119.479 91.8916 120 91.8916C120.521 91.8916 121.302 91.9451 122.344 92.0521C125 88.252 127.396 85.2548 129.531 83.0604L130 82.8998C130.208 82.8998 133.438 84.7731 139.688 88.5197C139.896 88.6802 140 88.8675 140 89.0816C140 90.4197 138.672 94.1127 136.016 100.161C136.901 101.392 137.682 102.783 138.359 104.336C146.12 105.138 150 105.968 150 106.824ZM150 24.6139V35.8536C150 36.71 146.12 37.5396 138.359 38.3424C137.734 39.7875 136.953 41.1791 136.016 42.5172C138.672 48.5652 140 52.2583 140 53.5963C140 53.8104 139.896 53.9977 139.688 54.1583C133.333 57.9584 130.104 59.8584 130 59.8584C129.583 59.8584 128.385 58.6007 126.406 56.0851C124.427 53.5695 123.073 51.7498 122.344 50.6258C121.302 50.7329 120.521 50.7864 120 50.7864C119.479 50.7864 118.698 50.7329 117.656 50.6258C116.927 51.7498 115.573 53.5695 113.594 56.0851C111.615 58.6007 110.417 59.8584 110 59.8584C109.896 59.8584 106.667 57.9584 100.312 54.1583C100.104 53.9977 100 53.8104 100 53.5963C100 52.2583 101.328 48.5652 103.984 42.5172C103.047 41.1791 102.266 39.7875 101.641 38.3424C93.8802 37.5396 90 36.71 90 35.8536V24.6139C90 23.7576 93.8802 22.928 101.641 22.1252C102.318 20.573 103.099 19.1814 103.984 17.9504C101.328 11.9024 100 8.20935 100 6.87129C100 6.6572 100.104 6.46987 100.312 6.3093C100.521 6.20226 101.432 5.66703 103.047 4.70363C104.661 3.74023 106.198 2.83035 107.656 1.97399C109.115 1.11763 109.896 0.689453 110 0.689453C110.417 0.689453 111.615 1.93385 113.594 4.42264C115.573 6.91143 116.927 8.71781 117.656 9.84178C118.698 9.73473 119.479 9.68121 120 9.68121C120.521 9.68121 121.302 9.73473 122.344 9.84178C125 6.04169 127.396 3.04444 129.531 0.85002L130 0.689453C130.208 0.689453 133.438 2.56274 139.688 6.3093C139.896 6.46987 140 6.6572 140 6.87129C140 8.20935 138.672 11.9024 136.016 17.9504C136.901 19.1814 137.682 20.573 138.359 22.1252C146.12 22.928 150 23.7576 150 24.6139Z" fill="url(#paint0_linear_196_240)"/>
<defs>
<linearGradient id="paint0_linear_196_240" x1="75" y1="0.689453" x2="66.8481" y2="163.708" gradientUnits="userSpaceOnUse">
<stop stop-color="#68FFE5"/>
<stop offset="1" stop-color="#3DC9F5"/>
</linearGradient>
</defs>
</svg>
