<svg width="150" height="169" viewBox="0 0 150 169" fill="none" xmlns="http://www.w3.org/2000/svg">
<path d="M149.394 43.094L149.811 42.8231C148.977 41.3328 147.726 39.9781 146.476 39.3007L79.3525 1.6378C78.2408 0.960409 76.7121 0.689453 75.0444 0.689453C73.3768 0.689453 71.8481 1.09589 70.7363 1.6378L4.03016 39.4361C1.66765 40.7909 0 44.1779 0 46.7519V122.213C0 123.703 0.277942 125.329 1.25074 126.819L0.972798 126.955C1.66765 128.039 2.64045 128.987 3.61325 129.529L70.5974 167.327C71.7091 168.005 73.2378 168.276 74.9055 168.276C76.5731 168.276 78.1018 167.869 79.2136 167.327L145.92 129.529C148.282 128.174 149.95 124.787 149.95 122.213V46.6165C150.089 45.5326 149.95 44.3133 149.394 43.094ZM75.0444 117.607C87.6908 117.607 98.8085 110.833 104.645 100.808L122.573 111.104C113.123 127.09 95.3342 137.929 75.0444 137.929C44.7487 137.929 20.1508 113.949 20.1508 84.4148C20.1508 54.8806 44.7487 30.901 75.0444 30.901C95.4732 30.901 113.261 41.8747 122.712 57.9966L104.645 68.1575C98.8085 57.9966 87.6908 51.2227 75.0444 51.2227C56.2833 51.2227 40.9965 66.1253 40.9965 84.4148C40.9965 102.704 56.2833 117.607 75.0444 117.607Z" fill="url(#paint0_linear_196_224)"/>
<defs>
<linearGradient id="paint0_linear_196_224" x1="75" y1="0.689453" x2="75" y2="168.276" gradientUnits="userSpaceOnUse">
<stop stop-color="#68FFE5"/>
<stop offset="1" stop-color="#3DC9F5"/>
</linearGradient>
</defs>
</svg>
