<svg width="150" height="150" viewBox="0 0 150 150" fill="none" xmlns="http://www.w3.org/2000/svg">
<path fill-rule="evenodd" clip-rule="evenodd" d="M114.844 0H35.1562C15.74 0 0 15.74 0 35.1562V114.844C0 134.26 15.74 150 35.1562 150H114.844C134.26 150 150 134.26 150 114.844V35.1562C150 15.74 134.26 0 114.844 0ZM66.0287 29.8828H82.7953V107.49C74.1943 109.123 67.8797 109.777 61.0213 109.777C40.5521 109.776 29.8828 100.523 29.8828 82.776C29.8828 65.6824 41.2061 54.5783 58.7344 54.5783C61.4561 54.5783 63.5244 54.7951 66.0287 55.4484V29.8828ZM66.0287 68.9479C64.0693 68.2957 62.4363 68.0777 60.368 68.0777C51.876 68.0777 46.9758 73.3037 46.9758 82.4484C46.9758 91.377 51.658 96.276 60.259 96.276C62.1088 96.276 63.634 96.167 66.0287 95.8412V68.9479ZM109.468 94.6418V55.7754L92.7023 55.7748V88.8721C92.7023 103.461 91.9395 109.014 89.5436 113.804C87.2578 118.487 83.6648 121.535 76.2615 125.018L91.8305 132.422C99.2338 128.72 102.827 125.346 105.549 120.01C108.489 114.457 109.468 108.034 109.468 94.6418ZM109.468 29.9719H92.7023V47.1738H109.468V29.9719Z" fill="url(#paint0_linear_196_233)"/>
<defs>
<linearGradient id="paint0_linear_196_233" x1="75" y1="0" x2="75" y2="208.836" gradientUnits="userSpaceOnUse">
<stop stop-color="#68FFE5"/>
<stop offset="1" stop-color="#3DC9F5"/>
</linearGradient>
</defs>
</svg>
