<svg width="150" height="168" viewBox="0 0 150 168" fill="none" xmlns="http://www.w3.org/2000/svg">
<path d="M88.4233 142.249C88.4233 143.372 89.5478 142.249 88.4233 142.249V142.249ZM63.3082 116.982C60.9841 111.367 66.2321 118.573 63.3082 116.982V116.982ZM25.5981 119.603C25.5981 118.48 26.7227 122.036 25.5981 119.603V119.603ZM67.5815 123.252C65.5573 119.322 66.0821 123.814 67.5815 126.247C71.1801 130.645 68.931 123.814 67.5815 123.252Z" fill="url(#paint0_linear_196_226)"/>
<path d="M136.855 149.453C132.882 155.349 129.358 148.798 124.635 150.67C116.388 150.67 125.31 145.991 125.085 141.312C120.736 137.101 115.788 147.02 112.939 149.734C106.025 148.244 99.2954 145.633 92.9224 141.967C85.4999 137.64 78.8661 131.462 73.4301 123.812C67.3477 116.245 62.5758 107.199 59.4106 97.2346C55.3643 79.77 53.2456 61.698 53.1131 43.5184C53.6379 31.3527 63.9089 44.8286 68.1072 40.4302C66.5328 34.1602 58.436 32.195 53.9378 29.5747C49.5895 29.5747 48.0151 24.4277 43.442 24.0533C43.442 17.2218 34.9703 20.9651 31.7466 16.1924C34.8953 6.08557 21.4756 16.1924 22.5252 7.67647C26.8735 -3.55339 9.18051 -1.68175 16.5276 8.23796C23.6498 13.2914 9.55536 16.9411 13.6787 20.3101C14.0274 21.1556 14.1952 22.0991 14.1659 23.0493C14.1366 23.9996 13.9112 24.9242 13.5115 25.7338C13.1118 26.5433 12.5514 27.2103 11.8846 27.6701C11.2177 28.1299 10.4671 28.3669 9.7053 28.3581C4.1575 29.0132 4.68229 38.5586 10.1551 33.5051C16.2277 31.1656 11.2047 34.5345 8.28087 35.1896C6.7379 35.4825 5.27386 36.2337 4.01188 37.3799C2.7499 38.5261 1.7269 40.0339 1.02893 41.7764C0.330961 43.5188 -0.0215599 45.4451 0.00102027 47.393C0.0236005 49.341 0.420622 51.2537 1.15869 52.9702C4.08749 63.4744 6.58968 74.1563 8.65572 84.9753C13.2832 101.376 20.1298 116.664 28.8977 130.176C33.5082 137.398 38.9679 143.709 45.0913 148.892C50.7138 153.726 56.8444 157.568 63.3091 160.309C74.8331 164.546 86.7588 166.844 98.7701 167.14C106.056 167.191 113.331 166.439 120.511 164.894C127.034 165.737 131.682 158.812 137.455 162.461C141.053 158.531 146.151 160.309 149.675 157.408C152.074 145.991 140.529 154.881 136.855 149.453ZM123.81 142.528C122.161 142.528 124.185 139.347 123.81 142.528V142.528ZM66.6078 39.588C65.8581 39.588 66.008 38.465 65.4083 38.1842C59.4106 34.7217 68.3321 36.0319 66.6078 39.9623V39.588ZM117.288 146.178C114.664 145.429 119.387 143.839 117.288 146.178V146.178ZM96.2211 147.207C94.4967 147.207 97.5705 145.897 96.2211 147.207V147.207ZM82.1266 136.165C81.152 136.165 82.1266 134.948 82.1266 136.165V136.165ZM80.4773 134.574C77.7784 134.574 79.8026 132.421 80.4773 134.574V134.574ZM77.3285 131.205C74.8545 131.954 77.3285 128.023 77.3285 131.205V131.205ZM32.3463 22.0881C28.3729 19.4678 33.171 25.1763 29.7974 25.0827C27.9981 25.0827 24.6244 20.2165 25.749 17.7833C27.9981 19.2807 31.9715 19.7486 32.6462 22.4624L32.3463 22.0881ZM25.4491 14.508H24.6244C24.3995 11.9812 31.1468 13.9465 25.749 14.8823L25.4491 14.508ZM17.8021 7.11497C14.6533 5.33691 17.8021 -1.58817 21.1008 1.68721C24.9243 8.5187 13.9786 0.938548 17.8021 7.11497ZM21.4756 13.5721C19.4514 14.6015 22.6752 11.6069 21.4756 13.5721V13.5721ZM25.0742 22.1817C29.5724 26.4865 22.5252 22.1817 19.6764 24.8956C15.1032 25.4571 24.6244 21.7138 25.0742 22.1817ZM26.3487 27.7966C28.9727 27.7966 40.4431 21.3395 36.6197 27.1416C40.1433 32.2886 37.3694 30.6041 35.0453 27.1416C37.1444 28.9196 35.4951 36.4998 32.2714 31.3528C29.0477 26.2057 28.5229 29.6683 30.9969 33.318C28.5978 27.2351 21.7006 29.8554 16.6775 31.9142C13.4538 31.5399 25.1492 28.4517 26.3487 27.7966ZM11.9544 41.366C10.7549 45.1093 13.7537 46.3259 16.6026 46.981C21.2507 45.3901 13.5288 44.3607 17.0524 42.8634C19.0016 42.8634 10.9048 40.4302 17.6522 39.3072C24.3995 38.1842 30.772 34.441 37.5943 32.6629C43.3752 31.0762 49.3022 30.4781 55.2123 30.8848C57.4614 34.1602 53.488 39.6816 49.4396 40.2431C44.5749 42.1962 39.5417 43.4213 34.4455 43.8928C28.4479 42.9569 24.1746 49.6013 18.027 50.4435C19.6764 46.7002 16.6775 49.1334 13.6038 48.9462C15.1781 56.6199 2.58312 46.981 10.0052 45.1093C4.45738 42.6762 4.38241 49.9756 4.98217 54.4675C0.109101 45.9516 5.50696 42.3954 11.9544 41.366ZM26.0488 51.4729C24.3995 51.005 27.3233 49.6013 26.0488 51.4729V51.4729ZM20.651 59.7081C20.651 59.7081 18.102 58.9595 19.1516 58.1172C26.6486 59.3338 12.4042 55.029 20.1262 56.0584C25.0742 55.8713 23.4249 59.4274 20.651 59.7081ZM23.125 61.299C22.2253 62.422 23.125 59.0531 23.125 61.299V61.299ZM17.8021 61.299C14.5034 60.4568 19.3765 59.2402 17.8021 61.299V61.299ZM17.3523 74.6813C16.6026 73.9326 16.8275 75.6171 17.3523 74.6813V74.6813ZM15.1032 73.0904C10.9798 71.3123 15.1032 71.1252 15.1032 73.0904V73.0904ZM14.2035 85.0689C12.2543 84.2267 12.3293 80.3898 11.4296 78.331C8.58075 68.692 14.5034 82.0743 13.9036 85.0689H14.2035ZM15.9278 71.1252C10.7549 70.3765 15.553 66.5396 15.9278 71.1252V71.1252ZM15.9278 67.9434H15.2531C9.55536 64.668 18.6268 66.3525 15.1032 67.9434H15.9278ZM15.1032 60.5504C10.53 57.6493 19.4514 57.1814 15.1032 60.5504V60.5504ZM16.6775 62.9835C14.1286 63.545 17.0524 59.9889 16.6775 62.9835V62.9835ZM6.9314 63.6386C6.03176 64.3873 6.9314 61.4862 6.9314 63.6386V63.6386ZM7.60613 62.3284C6.40661 62.3284 7.60613 59.8017 7.60613 62.3284V62.3284ZM8.2059 52.9702C5.20708 52.0344 10.6799 50.6307 8.2059 52.9702V52.9702ZM10.1551 71.6867C6.85643 70.7508 9.25548 65.6038 10.1551 71.6867V71.6867ZM12.4042 83.3844C15.553 88.1571 14.3535 90.7774 17.5772 96.5795C13.3788 93.3041 12.5542 85.3497 10.0802 80.2026C7.00637 71.7803 11.8045 80.1091 12.4042 83.3844ZM43.0671 143.09C40.5181 142.435 38.7938 139.066 36.9945 136.913C31.8767 132.238 27.8206 125.981 25.2242 118.758C20.908 111.879 17.2357 104.406 14.2785 96.4859C11.2047 87.8764 16.1528 97.141 16.9025 100.416C18.4768 106.78 23.4998 110.43 23.9497 114.641C29.4975 118.571 26.6486 125.122 31.4467 126.9C33.4709 125.59 33.6958 134.761 38.1191 132.889C35.645 134.293 39.0937 135.978 40.3682 138.598C42.9921 138.13 49.1397 146.272 43.0671 143.464V143.09ZM19.7513 83.3844C17.4272 82.7294 22.2253 82.355 19.7513 83.3844V83.3844ZM21.2507 87.7828C17.1274 86.4726 25.1492 85.9112 21.2507 87.7828V87.7828ZM31.6716 92.1812C34.6704 90.5903 32.8711 99.4806 35.795 100.604C41.4927 109.962 31.8216 100.604 28.2979 99.9485C28.7478 99.9485 25.4491 98.8255 26.8735 98.4512C25.8239 97.0474 23.4998 92.2747 28.8227 95.4565C33.321 97.7025 33.6958 96.018 31.6716 91.8068V92.1812ZM41.4927 108.652C41.4927 110.055 36.0949 109.868 41.0429 112.582C38.194 112.582 37.2944 112.582 41.0429 115.39C39.3936 116.98 44.2666 118.291 42.6173 120.724C47.5653 125.59 41.7176 121.94 39.6185 119.975C37.5193 118.01 33.246 116.7 33.9957 115.296C40.0683 119.226 35.5701 115.296 32.8711 112.488C37.7442 113.986 29.0476 107.997 33.6208 109.587C35.0453 110.055 31.5966 106.031 36.0949 108.932C32.0465 104.066 39.6185 107.809 41.4927 108.277V108.652ZM45.0913 107.061C40.5181 105.751 45.0913 103.879 45.0913 107.061V107.061ZM43.8168 125.777C39.2436 123.344 46.7407 125.777 43.8168 125.777V125.777ZM40.4431 124.186C35.1203 122.034 44.3416 124.186 40.4431 124.186V124.186ZM39.7684 125.216C38.1191 125.216 39.7684 123.625 39.7684 125.216V125.216ZM31.6716 110.71C26.2737 107.903 30.1722 107.622 31.6716 110.71V110.71ZM27.6232 107.435C23.2749 104.347 27.0235 104.347 27.6232 107.435V107.435ZM27.6232 113.518C23.3499 109.4 27.0984 111.178 27.6232 113.518V113.518ZM26.4987 100.978C23.8747 100.978 27.4733 99.1062 26.4987 100.978V100.978ZM45.0913 133.732C41.2678 132.328 45.0913 132.421 45.0913 133.732V133.732ZM42.3174 130.176H41.1179C36.0199 125.122 43.442 126.619 46.7407 128.865C54.0128 130.176 45.0913 132.515 42.3174 130.176ZM62.5594 145.617C57.4614 144.119 63.7589 143.09 62.5594 145.617V145.617ZM61.2849 140.75C60.5352 139.721 60.91 140.75 61.2849 140.75V140.75ZM54.8374 128.21C50.4142 126.9 56.4118 126.432 57.5364 128.21C65.1833 130.176 57.0866 130.643 54.8374 128.21ZM56.4118 139.534H55.5871L54.6125 138.972C50.4142 133.451 63.534 141.593 56.4118 139.534ZM54.3127 145.991C53.1881 146.552 54.3127 144.681 54.3127 145.991V145.991ZM56.4868 134.855L55.2873 134.387C50.3392 130.176 61.5848 135.229 56.4868 134.387V134.855ZM57.6863 150.951C54.6875 149.453 59.6356 148.611 57.6863 150.951V150.951ZM58.436 144.026C54.0877 142.716 61.135 142.809 58.436 144.026V144.026ZM59.4106 138.317C56.1119 137.756 59.7855 136.352 59.4106 138.317V138.317ZM54.0128 130.082C57.4614 130.643 57.5364 132.609 54.0128 131.392C53.338 131.392 52.2135 131.392 51.9136 129.801C46.2159 125.122 52.1385 127.462 54.0128 129.614V130.082ZM53.563 148.798C52.0635 149.921 53.563 146.74 53.563 148.798V148.798ZM51.2389 144.026C47.2654 144.026 54.2377 141.593 51.2389 144.026V144.026ZM50.3392 147.301C48.39 146.365 51.6137 146.552 50.3392 147.301V147.301ZM52.5883 138.972C48.6899 137.662 54.4626 137.288 52.5883 138.972V138.972ZM51.3888 133.638C49.2896 133.638 50.939 132.141 51.3888 133.638V133.638ZM47.3404 124.748C43.0671 120.443 56.1869 128.304 47.3404 124.748V124.748ZM46.8906 126.526C46.0659 125.684 46.8906 127.087 46.8906 126.526V126.526ZM74.2548 161.9C67.5842 160.414 61.1202 157.735 55.0624 153.945L52.5883 152.074C48.315 149.173 48.8398 148.518 53.0382 151.419C54.4626 152.916 64.9584 158.25 60.0104 154.694C57.8363 154.039 45.766 145.804 53.7129 149.36C60.3346 153.742 67.1995 157.526 74.2548 160.683C80.2182 162.45 86.3804 162.924 92.4725 162.087C97.3456 165.175 102.444 161.338 107.467 164.052C96.3294 165.728 85.0443 164.999 74.1048 161.9H74.2548ZM64.8835 155.349C61.06 154.507 66.083 153.197 64.8835 155.349V155.349ZM70.3563 145.991C66.008 144.962 74.8545 143.839 70.3563 145.991V145.991ZM76.6538 158.25C84.1508 161.713 72.1556 159.373 69.6816 157.408C62.7843 153.852 75.0794 158.25 76.6538 158.25ZM68.707 147.956C62.6344 146.833 75.4543 147.956 68.707 147.956V147.956ZM80.1024 155.911C77.9283 158.063 80.1024 153.103 80.1024 155.911V155.911ZM82.2766 156.379C81.152 156.94 82.2766 154.788 82.2766 156.379V156.379ZM84.3008 152.822C83.1013 154.694 84.3008 150.67 84.3008 152.822V152.822ZM86.6249 152.822C83.2512 154.413 90.1485 149.173 86.6249 152.822V152.822ZM87.6745 152.822C91.348 148.892 91.4979 150.764 91.423 154.039C88.1992 158.531 90.1485 152.167 88.1243 154.6C86.1001 157.034 86.6998 153.665 87.6745 153.01V152.822ZM93.897 157.034C90.1485 157.034 97.7205 151.98 93.897 157.034V157.034ZM93.897 158.718C92.3976 159.186 93.897 157.501 93.897 158.718V158.718ZM92.6975 155.443C89.7736 153.01 99.7447 149.734 92.6975 155.443V155.443ZM96.9708 156.285H96.371C96.1461 154.133 100.419 153.758 96.9708 156.472V156.285ZM98.0953 158.063C95.8462 157.314 101.619 154.32 98.0953 158.063V158.063ZM100.794 157.127C96.9708 158.812 104.393 153.384 100.794 157.127V157.127ZM102.444 158.157L101.544 158.905C99.8196 157.595 106.867 154.413 102.444 158.25V158.157ZM99.2199 153.197C95.1715 151.512 88.724 146.084 84.2258 149.734C78.2282 154.507 87.2996 144.494 82.4265 148.986C77.4785 156.379 79.0529 144.306 74.2548 147.956C74.2548 146.833 69.9815 146.459 72.9803 144.494C70.2813 144.494 72.0057 144.026 72.9803 141.312C71.7807 141.312 65.4832 141.312 62.7843 138.598C59.7855 133.732 63.3091 135.79 66.3829 136.446C61.3599 137.569 68.1822 141.125 71.4809 139.159C69.9815 138.317 68.2571 134.293 63.9838 130.737C58.8224 127.205 53.4891 124.08 48.0151 121.379C41.7176 116.7 49.3646 119.694 51.5387 122.127C57.8363 125.59 55.3622 117.355 51.5387 115.202C47.4904 115.202 46.5157 109.681 43.292 109.962C48.315 110.991 51.8386 108.371 46.2159 102.007C40.5931 95.6437 48.465 107.903 45.3912 106.125C43.9667 103.785 45.0163 100.51 40.5181 99.2934C40.5181 101.446 39.9184 104.721 38.9437 100.229C37.6692 100.229 36.2448 102.194 35.1952 97.6089C36.1698 92.2747 30.9969 91.0582 30.1722 87.6892C34.6704 91.2453 36.6946 88.4379 33.5459 84.601C30.3971 80.7641 31.0718 83.5716 29.8723 84.601C25.4491 90.2159 29.4225 75.2428 27.4733 79.3604C25.524 79.3604 26.6486 82.0743 26.7236 85.4432C20.2761 83.478 28.223 89.6544 30.0972 93.0234C27.1734 89.2801 27.6982 95.9244 25.2242 93.0234C24.3995 90.2159 24.3245 85.8176 20.2011 85.0689C24.8493 83.0101 17.5022 78.9861 18.102 78.7989C20.7259 75.8043 21.1008 71.6867 24.2495 78.1438C20.2761 78.1438 24.2495 86.3791 25.1492 83.7588C25.1492 79.3604 26.7985 74.4006 20.7259 72.6225C18.9267 75.6171 15.8529 66.7268 19.3765 68.5984C18.9267 62.7028 24.9243 66.1653 24.5494 63.6386C27.6982 61.9541 20.8009 56.4328 24.5494 54.2804C27.3983 56.5264 34.7454 50.9114 29.7974 50.1628C32.9461 50.1628 35.4201 51.8472 35.72 47.9168C38.194 48.5719 45.0163 51.2857 38.8688 47.0746C41.567 45.7048 44.4311 44.9138 47.3404 44.735C53.2631 39.0265 52.0635 54.0932 50.7141 58.3044C52.9632 56.3392 52.5134 67.1011 51.7637 71.1252C52.9632 69.0664 53.488 74.4941 51.7637 78.331C51.7637 77.6759 54.7625 77.1144 52.6633 81.6064C51.014 77.208 50.3392 90.9646 51.3888 84.601C54.1627 78.8925 53.488 84.601 54.3127 86.847C54.9124 91.994 56.7117 96.7667 57.3115 101.446C59.9354 104.721 56.1869 102.475 56.1869 106.967C57.0116 105.657 60.5352 108.745 60.4602 113.331C60.4602 106.031 61.135 111.646 63.9838 113.331C65.901 118.23 68.4318 122.715 71.4809 126.619C74.2548 130.643 71.4809 127.836 72.5304 130.269C74.3806 133.457 76.7174 136.156 79.4065 138.212C82.0956 140.267 85.0838 141.639 88.1992 142.248C89.3538 144.753 91.1152 146.737 93.2302 147.914C95.3452 149.092 97.7048 149.401 99.9696 148.798C95.4714 152.261 112.565 153.197 106.792 155.068C105.068 156.566 102.144 153.197 99.2199 153.384V153.197ZM50.3392 119.788C48.5399 119.788 50.3392 117.916 50.3392 119.788V119.788ZM53.1881 121.847C51.8386 121.847 52.2885 119.601 53.1881 121.847V121.847ZM33.6208 87.6892C31.8216 87.0341 34.3705 86.847 33.6208 87.6892V87.6892ZM29.1976 87.6892C27.2484 87.6892 29.1976 84.5074 29.1976 87.6892V87.6892ZM26.9485 86.9406C26.1988 87.4085 26.9485 85.9112 26.9485 86.9406V86.9406ZM109.416 164.146C106.492 163.491 111.815 162.087 109.416 164.146V164.146ZM114.889 154.32H112.64C113.089 150.109 122.611 153.384 126.509 153.477C125.31 156.659 118.037 153.852 114.889 154.694V154.32ZM129.883 154.32C127.859 154.32 130.782 151.325 129.883 154.32V154.32ZM137.38 153.477C135.506 154.694 137.38 150.67 137.38 153.477V153.477ZM140.978 154.507C137.08 153.384 142.778 153.384 143.977 153.197C151.024 153.384 143.977 154.694 140.454 154.694L140.978 154.507Z" fill="url(#paint1_linear_196_226)"/>
<path d="M33.9198 37.6225C41.4169 35.7508 31.071 34.5343 28.7469 37.6225C30.0964 38.839 31.8207 35.6572 33.9198 37.6225ZM27.7723 38.839C27.7723 40.6171 29.1217 36.7802 27.7723 38.839V38.839ZM47.4145 34.3471C52.4375 33.3177 48.2392 30.5102 46.7398 35.2829C47.2646 36.5931 47.5644 34.815 47.4145 34.3471ZM42.7663 35.2829C42.3915 25.9247 49.7386 38.6519 42.7663 35.2829V35.2829ZM20.875 43.9861C21.7617 43.93 22.6364 44.2608 23.349 44.9219C28.9718 49.7881 22.5993 37.061 20.875 43.9861Z" fill="url(#paint2_linear_196_226)"/>
<path d="M21.1807 40.6193C22.3802 41.8359 23.3548 38.6541 21.1807 40.6193V40.6193ZM23.9546 40.7129L25.0042 41.8359C30.1021 42.3974 24.1795 37.5311 23.9546 40.7129ZM65.2632 120.819C65.2632 117.17 65.938 123.627 65.2632 120.819V120.819ZM29.4274 74.0281C30.1771 75.7126 30.7769 72.3437 29.4274 74.0281V74.0281ZM30.1021 79.7366C30.1021 74.964 31.5266 82.9184 30.1021 79.7366V79.7366ZM31.6765 75.1511C29.5773 70.2849 34.1505 77.1163 31.6765 75.1511V75.1511ZM28.6027 67.4774C29.1275 68.8811 30.402 68.9747 31.3766 69.349C41.2727 75.0575 24.2544 59.9908 28.6027 67.4774ZM32.6511 80.8596C34.0006 77.3971 34.9752 85.8195 32.6511 80.8596V80.8596ZM36.2497 79.3623C39.0236 87.9719 34.5254 78.2393 34.0006 75.3383C34.0648 78.6273 34.7864 81.8441 36.0998 84.6965C38.6488 89.4692 37.5242 82.0762 40.2231 86.8489C38.7237 82.6377 40.9728 84.9773 40.673 83.1056C40.3731 81.234 33.1759 72.1565 36.2497 79.3623ZM38.9486 96.0199C39.6234 98.921 40.2981 96.0199 38.9486 96.0199V96.0199ZM28.9776 55.3117C29.4274 56.6219 29.8023 55.3117 28.9776 55.3117V55.3117ZM34.0006 59.2422C35.2751 55.8732 36.3996 63.079 34.0006 59.2422V59.2422ZM27.3282 69.9105L28.3778 71.3143C35.7999 74.0281 20.5059 62.424 27.3282 69.9105ZM32.5762 66.448C40.0732 70.2848 31.9014 63.9213 29.2775 64.5763C30.1021 65.7929 31.6765 65.2314 32.5762 66.448ZM31.2267 62.3304C32.5762 64.0148 37.3743 67.1031 33.5508 62.8919C35.9498 62.3304 33.5508 61.3945 31.7515 59.8972C28.4528 53.6272 32.2763 60.4587 31.2267 62.3304Z" fill="url(#paint3_linear_196_226)"/>
<path d="M26.4224 70.6563C22.449 66.5387 27.622 72.6215 25.9726 72.5279C21.8492 68.7846 23.5736 71.4985 25.9726 74.3996C28.4466 79.0787 30.4708 71.5921 26.4224 70.6563ZM42.4661 76.6455C42.0163 70.2819 43.3657 77.6749 42.4661 76.6455V76.6455ZM50.1131 43.8918C50.1131 45.0148 50.6379 42.956 50.1131 43.8918V43.8918ZM52.5871 87.7818C52.5871 86.0973 52.5871 89.747 52.5871 87.7818V87.7818ZM50.4129 76.3648C51.0127 80.6696 51.1626 69.0654 50.4129 76.3648V76.3648ZM51.4625 78.4236V79.3594C53.0369 74.5867 51.7624 71.9664 51.4625 78.4236ZM50.7128 53.1564C49.6632 59.7072 48.6886 56.9933 50.1131 52.127C49.7382 45.857 46.7394 55.9639 48.0889 58.8649C50.263 63.2633 52.5871 48.0094 50.7128 53.1564ZM58.2848 109.119C59.1095 105.188 59.2594 112.394 58.2848 109.119V109.119ZM48.1638 69.0654C48.1638 67.7552 48.1638 70.937 48.1638 69.0654V69.0654ZM52.9619 84.9743C52.9619 87.4075 53.7866 81.4182 52.9619 84.9743V84.9743ZM56.3356 102.1L56.8604 103.129C57.91 98.5438 54.1615 95.7363 56.3356 102.1ZM44.6402 97.2336C43.6656 95.0812 46.6644 99.2924 44.6402 97.2336V97.2336ZM53.8616 89.2791C53.8616 85.3487 54.4613 91.993 53.8616 89.2791V89.2791ZM46.1396 62.889C45.7648 60.3622 47.2642 65.9772 46.1396 62.889V62.889Z" fill="url(#paint4_linear_196_226)"/>
<path d="M47.34 66.8181C45.3908 60.8288 49.1393 69.9999 47.34 66.8181V66.8181ZM46.8902 77.58C45.9156 68.2218 43.7414 81.7912 46.8902 84.0372C47.8648 87.219 48.7644 85.9089 49.1393 82.2592C46.7402 82.2592 49.7391 76.4571 46.8902 77.58Z" fill="url(#paint5_linear_196_226)"/>
<defs>
<linearGradient id="paint0_linear_196_226" x1="57.2606" y1="114.805" x2="57.2606" y2="142.749" gradientUnits="userSpaceOnUse">
<stop stop-color="#68FFE5"/>
<stop offset="1" stop-color="#3DC9F5"/>
</linearGradient>
<linearGradient id="paint1_linear_196_226" x1="75" y1="0" x2="75" y2="167.143" gradientUnits="userSpaceOnUse">
<stop stop-color="#68FFE5"/>
<stop offset="1" stop-color="#3DC9F5"/>
</linearGradient>
<linearGradient id="paint2_linear_196_226" x1="35.343" y1="31.7783" x2="35.343" y2="46.0614" gradientUnits="userSpaceOnUse">
<stop stop-color="#68FFE5"/>
<stop offset="1" stop-color="#3DC9F5"/>
</linearGradient>
<linearGradient id="paint3_linear_196_226" x1="43.3719" y1="39.625" x2="43.3719" y2="121.549" gradientUnits="userSpaceOnUse">
<stop stop-color="#68FFE5"/>
<stop offset="1" stop-color="#3DC9F5"/>
</linearGradient>
<linearGradient id="paint4_linear_196_226" x1="41.223" y1="43.6401" x2="41.223" y2="109.999" gradientUnits="userSpaceOnUse">
<stop stop-color="#68FFE5"/>
<stop offset="1" stop-color="#3DC9F5"/>
</linearGradient>
<linearGradient id="paint5_linear_196_226" x1="47.1937" y1="64.7373" x2="47.1937" y2="85.8379" gradientUnits="userSpaceOnUse">
<stop stop-color="#68FFE5"/>
<stop offset="1" stop-color="#3DC9F5"/>
</linearGradient>
</defs>
</svg>
