<svg width="150" height="148" viewBox="0 0 150 148" fill="none" xmlns="http://www.w3.org/2000/svg">
<path d="M147.161 66.9672L81.6657 2.77413C80.769 1.89465 79.7043 1.19699 78.5324 0.720991C77.3605 0.244996 76.1044 0 74.8359 0C73.5674 0 72.3114 0.244996 71.1395 0.720991C69.9676 1.19699 68.9029 1.89465 68.0061 2.77413L54.4121 16.0998L71.6624 33.0096C73.6969 32.3287 75.8856 32.2222 77.9789 32.7022C80.0721 33.1822 81.9856 34.2295 83.5008 35.7243C85.016 37.2192 86.072 39.1016 86.5482 41.1566C87.0244 43.2115 86.9016 45.3564 86.1939 47.3462L102.816 63.6495C105.275 62.8007 107.956 62.7982 110.417 63.6422C112.878 64.4863 114.972 66.1267 116.355 68.2933C117.738 70.4599 118.327 73.0236 118.025 75.5621C117.723 78.1007 116.549 80.4628 114.694 82.2595C112.817 84.1108 110.343 85.2659 107.694 85.5273C105.044 85.7888 102.385 85.1405 100.169 83.6931C97.9528 82.2458 96.3183 80.0892 95.5444 77.5917C94.7705 75.0943 94.9051 72.4109 95.9254 69.9999L80.4282 54.7994V94.8041C82.7838 95.9471 84.6686 97.8469 85.7685 100.187C86.8683 102.527 87.1168 105.166 86.4725 107.664C85.8281 110.162 84.3299 112.368 82.2276 113.914C80.1252 115.46 77.5457 116.254 74.919 116.162C72.2923 116.07 69.7771 115.098 67.7926 113.409C65.8081 111.719 64.4743 109.414 64.0134 106.878C63.5525 104.341 63.9923 101.726 65.2597 99.469C66.527 97.2118 68.5453 95.4486 70.9781 94.4732V54.101C69.5745 53.5372 68.2986 52.7067 67.2241 51.6573C66.1495 50.6079 65.2974 49.3604 64.717 47.9866C64.1366 46.6129 63.8393 45.1402 63.8422 43.6533C63.8452 42.1664 64.1483 40.6948 64.7342 39.3233L47.737 22.6524L2.82999 66.6731C1.9328 67.5521 1.22109 68.5958 0.735508 69.7446C0.249929 70.8933 0 72.1246 0 73.3681C0 74.6116 0.249929 75.8428 0.735508 76.9916C1.22109 78.1403 1.9328 79.184 2.82999 80.0631L68.3249 144.265C69.2216 145.145 70.2864 145.842 71.4582 146.318C72.6301 146.794 73.8862 147.039 75.1547 147.039C76.4232 147.039 77.6793 146.794 78.8511 146.318C80.023 145.842 81.0878 145.145 81.9845 144.265L147.17 80.3664C148.067 79.4873 148.779 78.4436 149.264 77.2949C149.75 76.1461 150 74.9148 150 73.6714C150 72.4279 149.75 71.1966 149.264 70.0479C148.779 68.8991 148.067 67.8554 147.17 66.9764" fill="url(#paint0_linear_196_245)"/>
<defs>
<linearGradient id="paint0_linear_196_245" x1="75" y1="0" x2="75" y2="147.039" gradientUnits="userSpaceOnUse">
<stop stop-color="#68FFE5"/>
<stop offset="1" stop-color="#3DC9F5"/>
</linearGradient>
</defs>
</svg>
