<svg width="150" height="150" viewBox="0 0 150 150" fill="none" xmlns="http://www.w3.org/2000/svg">
<path d="M75 0C65.1509 0 55.3982 1.9881 46.2987 5.85077C37.1993 9.71345 28.9314 15.3751 21.967 22.5124C7.90176 36.9268 0 56.4769 0 76.862C0 110.835 21.525 139.658 51.3 149.881C55.05 150.496 56.25 148.113 56.25 146.038V133.048C35.475 137.66 31.05 122.749 31.05 122.749C27.6 113.833 22.725 111.45 22.725 111.45C15.9 106.684 23.25 106.838 23.25 106.838C30.75 107.376 34.725 114.755 34.725 114.755C41.25 126.438 52.275 122.979 56.55 121.135C57.225 116.139 59.175 112.757 61.275 110.835C44.625 108.913 27.15 102.303 27.15 73.0189C27.15 64.4872 30 57.6465 34.875 52.1893C34.125 50.2678 31.5 42.2741 35.625 31.8977C35.625 31.8977 41.925 29.8225 56.25 39.7377C62.175 38.0467 68.625 37.2012 75 37.2012C81.375 37.2012 87.825 38.0467 93.75 39.7377C108.075 29.8225 114.375 31.8977 114.375 31.8977C118.5 42.2741 115.875 50.2678 115.125 52.1893C120 57.6465 122.85 64.4872 122.85 73.0189C122.85 102.38 105.3 108.837 88.575 110.758C91.275 113.141 93.75 117.829 93.75 124.978V146.038C93.75 148.113 94.95 150.573 98.775 149.881C128.55 139.581 150 110.835 150 76.862C150 66.7684 148.06 56.7735 144.291 47.4482C140.522 38.1229 134.997 29.6497 128.033 22.5124C121.069 15.3751 112.801 9.71345 103.701 5.85077C94.6018 1.9881 84.8491 0 75 0Z" fill="url(#paint0_linear_196_243)"/>
<defs>
<linearGradient id="paint0_linear_196_243" x1="75" y1="-8.80335e-08" x2="72.0461" y2="180.623" gradientUnits="userSpaceOnUse">
<stop stop-color="#68FFE5"/>
<stop offset="1" stop-color="#3DC9F5"/>
</linearGradient>
</defs>
</svg>
