<svg width="150" height="155" viewBox="0 0 150 155" fill="none" xmlns="http://www.w3.org/2000/svg">
<path d="M25 0.689453C18.3696 0.689453 12.0107 3.39456 7.32233 8.20969C2.63392 13.0248 0 19.5555 0 26.3651V129.068C0 135.877 2.63392 142.408 7.32233 147.223C12.0107 152.038 18.3696 154.743 25 154.743H125C131.63 154.743 137.989 152.038 142.678 147.223C147.366 142.408 150 135.877 150 129.068V26.3651C150 19.5555 147.366 13.0248 142.678 8.20969C137.989 3.39456 131.63 0.689453 125 0.689453H25ZM86.1167 112.421C92.1167 117.385 98.1 119.825 104.083 119.765C107.75 119.765 110.567 119.08 112.517 117.694C113.427 117.086 114.168 116.246 114.666 115.256C115.165 114.265 115.403 113.159 115.358 112.045C115.37 110.83 115.123 109.627 114.633 108.521C114.144 107.415 113.424 106.433 112.525 105.643C110.567 103.889 106.867 102.134 101.425 100.371C94.8917 98.4282 89.8417 95.9205 86.3 92.8395C82.8167 89.7584 81.05 85.462 80.9833 79.9417C80.9833 74.7295 83.1833 70.3732 87.5833 66.8557C91.8667 63.3467 97.3333 61.5836 104 61.5836C113.283 61.5836 120.742 63.903 126.358 68.5503L119.942 78.812C117.631 76.9664 114.981 75.6213 112.15 74.8579C109.606 73.984 106.949 73.508 104.267 73.4458C101.1 73.4458 98.5583 74.0449 96.6583 75.2345C94.7667 76.4327 93.825 77.9989 93.825 79.9417C93.825 82.0813 94.9833 83.8958 97.3 85.4021C99.6333 86.8485 103.6 88.4489 109.217 90.2034C116 92.2746 120.833 95.039 123.7 98.4881C126.575 101.937 128.008 106.336 128.008 111.668C128.008 117.129 125.967 121.836 121.867 125.79C117.833 129.684 111.967 131.721 104.267 131.909C94.1833 131.909 85.75 128.803 78.9667 122.589L86.1167 112.421ZM40.0333 117.882C41.9917 119.14 44.3417 119.765 47.0917 119.765C49.9667 119.765 52.3417 118.917 54.2417 117.223C56.1333 115.468 57.0833 112.421 57.0833 108.091V62.7133H69.4583V110.539C69.275 117.942 67.2 123.282 63.225 126.543C61.0561 128.437 58.5277 129.848 55.8 130.685C53.2736 131.476 50.6493 131.888 48.0083 131.909C43.425 131.909 39.3583 131.096 35.8167 129.462C32.025 127.707 28.85 124.6 26.2833 120.141L34.9 112.892C36.4833 115.092 38.2 116.752 40.0333 117.882Z" fill="url(#paint0_linear_196_247)"/>
<defs>
<linearGradient id="paint0_linear_196_247" x1="75" y1="0.689453" x2="73.8535" y2="237.352" gradientUnits="userSpaceOnUse">
<stop stop-color="#68FFE5"/>
<stop offset="1" stop-color="#3DC9F5"/>
</linearGradient>
</defs>
</svg>
