<svg width="150" height="152" viewBox="0 0 150 152" fill="none" xmlns="http://www.w3.org/2000/svg">
<path fill-rule="evenodd" clip-rule="evenodd" d="M6.4146 79.7956C6.4146 84.3751 5.95743 85.8686 4.7761 86.9657C3.46955 87.9094 1.76726 88.4308 0 88.4308L0.457173 91.0485C3.19312 91.0757 5.84638 90.3018 7.92315 88.8779C9.03478 87.7856 9.86643 86.5327 10.3602 85.182C10.8507 83.8548 11.001 82.4261 10.7973 81.026V63.7037H6.4146V79.7956ZM37.3181 77.2369C37.3181 79.1362 37.3181 80.8278 37.4976 82.2977H33.8119L33.5615 79.2837C32.7865 80.3524 31.6832 81.2325 30.3601 81.8317C28.9993 82.4461 27.519 82.7514 26.0258 82.7259C22.4263 82.7259 18.144 81.131 18.144 74.6334V63.8323H22.3022V73.948C22.3022 77.4634 23.6407 79.8133 27.3879 79.8133C28.1539 79.8227 28.9162 79.7059 29.6442 79.4677C30.3378 79.2387 30.9847 78.8875 31.5544 78.4307C32.0829 78.0085 32.5141 77.4773 32.8184 76.8736C33.1137 76.2932 33.2614 75.6703 33.252 75.0345V63.7037H37.4055V77.1366L37.3181 77.2369ZM46.1544 69.4629C46.1544 66.9336 46.1544 64.8598 45.9654 62.99H49.7031L49.8874 66.3898C50.719 65.1547 51.9193 64.1508 53.3534 63.4689C54.8158 62.7818 56.4224 62.4561 58.0373 62.5193C63.5742 62.5193 67.7419 66.5786 67.7419 72.6209C67.7419 79.7532 62.7343 83.2922 57.3226 83.2922C55.9487 83.3487 54.58 83.0905 53.3215 82.5372C52.1192 82.0135 51.0673 81.1975 50.2619 80.1637V91.0485H46.1544V69.4629ZM50.2619 74.7679C50.2713 75.2657 50.3351 75.7588 50.4461 76.2424C50.8005 77.4493 51.6039 78.5192 52.7308 79.2837C53.8566 80.0528 55.2459 80.4633 56.6717 80.4633C61.0545 80.4633 63.6345 77.3301 63.6345 72.786C63.6345 68.814 61.2128 65.4083 56.8241 65.4083C55.0876 65.5334 53.4644 66.2058 52.2548 67.3029C51.0498 68.4035 50.3351 69.8463 50.2619 71.3669V74.7679ZM74.8299 63.7532L79.9143 74.8233C80.4459 76.0584 81.0177 77.5413 81.391 78.6478C81.834 77.5189 82.31 76.0808 82.8771 74.7443L87.4878 63.7544H91.9355L85.6225 77.1072C82.4672 83.5222 80.5428 86.8395 77.6403 88.8402C76.1766 89.9314 74.3916 90.6876 72.4625 91.0462L71.423 88.176C72.7389 87.8286 73.9872 87.2632 75.1158 86.5033C76.6515 85.4805 77.8754 84.1805 78.6834 82.7012C78.8523 82.4538 78.9696 82.1749 79.0283 81.8813C78.9868 81.5672 78.89 81.2629 78.7424 80.9824L70.1601 63.7025H74.7696L74.8299 63.7532ZM103.039 57.7593V63.2472H108.871V65.8601H103.039V76.1587C103.039 78.5145 103.833 79.8688 106.075 79.8688C106.872 79.8796 107.668 79.7992 108.447 79.6293L108.626 82.2517C107.454 82.5958 106.235 82.7527 105.014 82.7165C104.205 82.7621 103.396 82.6541 102.628 82.398C101.885 82.1587 101.198 81.7701 100.611 81.2561C99.3743 79.8275 98.8073 78.0533 99.0282 76.2885V65.833H95.5633V63.22H99.0884V58.565L103.039 57.7593ZM116.703 73.1682C116.616 74.0727 116.764 74.9845 117.136 75.8142C117.531 76.6871 118.123 77.4566 118.866 78.0627C119.633 78.7032 120.551 79.1952 121.565 79.5042C122.592 79.8199 123.669 79.9438 124.741 79.8699C126.919 79.9101 129.088 79.5691 131.095 78.8601L131.828 81.5097C129.324 82.364 126.688 82.7694 124.043 82.7071C122.497 82.7934 120.949 82.6016 119.471 82.1408C118.018 81.6807 116.697 80.9612 115.603 80.0351C114.511 79.1091 113.671 77.9943 113.139 76.7721C112.616 75.5727 112.409 74.259 112.54 72.9571C112.54 67.1224 116.702 62.5146 123.503 62.5146C131.127 62.5146 133.037 68.0768 133.037 71.6299C133.074 72.1759 133.074 72.7237 133.037 73.2697H116.605L116.703 73.1682ZM129.157 70.5187C129.281 69.8076 129.221 69.0765 128.982 68.3953C128.724 67.689 128.307 67.0516 127.763 66.5326C127.179 65.9752 126.489 65.5411 125.733 65.2562C124.94 64.9529 124.099 64.7954 123.25 64.7914C121.505 64.8975 119.868 65.5428 118.663 66.6022C117.454 67.6615 116.767 69.0535 116.734 70.5187H129.157ZM139.295 69.1739C139.295 66.8499 139.295 64.8468 139.115 63.0042H142.705V66.8735H142.88C143.258 65.6808 144.038 64.6203 145.105 63.8464C146.207 63.0609 147.513 62.6095 148.866 62.5464C149.239 62.5004 149.622 62.5004 150 62.5464V65.9297C149.543 65.8792 149.083 65.8792 148.626 65.9297C147.269 65.9758 145.972 66.4641 144.989 67.3123C144.001 68.1593 143.393 69.3024 143.272 70.5234C143.161 71.0759 143.099 71.6373 143.088 72.2009V82.7259H139.142V69.201L139.295 69.1739ZM129.669 9.27708C129.744 11.0504 129.297 12.8067 128.382 14.3284C127.47 15.8427 126.129 17.0532 124.528 17.8073C122.931 18.5563 121.145 18.811 119.401 18.5387C117.655 18.2669 116.029 17.4812 114.732 16.282C113.429 15.0755 112.511 13.512 112.095 11.7873C111.678 10.0626 111.78 8.25333 112.388 6.58624C112.989 4.92241 114.07 3.47322 115.493 2.42081C116.914 1.3735 118.615 0.773385 120.379 0.697309C121.55 0.648056 122.718 0.830771 123.818 1.23491C124.917 1.63905 125.926 2.2566 126.785 3.05194C128.529 4.66483 129.564 6.90067 129.665 9.27236L129.669 9.27708ZM77.6816 114.869C53.9393 114.869 33.2059 106.181 22.4357 93.3194C26.4294 104.836 33.9005 114.832 43.8201 121.931C53.6981 128.999 65.5442 132.8 77.6958 132.802C89.8467 132.797 101.692 128.996 111.57 121.931C121.488 114.832 128.956 104.835 132.945 93.3194C122.156 106.181 101.423 114.869 77.6816 114.869ZM77.6722 31.2214C101.414 31.2214 122.151 39.912 132.918 52.7681C128.924 41.2524 121.453 31.2566 111.534 24.1575C101.657 17.0904 89.8131 13.2871 77.6627 13.2809C65.5123 13.2871 53.6684 17.0904 43.7917 24.1575C33.871 31.2547 26.4001 41.2513 22.4097 52.7681C33.1976 39.9356 53.9299 31.2214 77.6722 31.2214ZM45.0841 139.871C45.1815 142.106 44.6182 144.321 43.4645 146.24C42.3181 148.149 40.6283 149.673 38.6107 150.62C36.593 151.566 34.3389 151.891 32.1356 151.553C29.9324 151.213 27.8826 150.219 26.2526 148.7C24.6157 147.179 23.462 145.211 22.9343 143.041C22.4133 140.863 22.5418 138.58 23.304 136.474C24.0685 134.375 25.436 132.548 27.2355 131.221C29.3313 129.683 31.8984 128.923 34.495 129.071C37.0917 129.219 39.5554 130.266 41.4622 132.033C43.6563 134.069 44.9577 136.887 45.0841 139.875V139.871ZM25.1445 28.3135C23.8395 28.3702 22.5474 28.0349 21.4352 27.3509C20.3154 26.6654 19.424 25.6641 18.8736 24.4733C18.3231 23.2824 18.1383 21.9554 18.3424 20.6598C18.5385 19.3608 19.117 18.1494 20.0046 17.1797C20.8842 16.2144 22.0308 15.5312 23.2993 15.2167C24.5669 14.9005 25.9008 14.9762 27.1244 15.4338C28.3524 15.8856 29.4165 16.6947 30.1793 17.7566C31.0801 18.9991 31.525 20.5135 31.4392 22.0451C31.3533 23.5767 30.742 25.0321 29.708 26.1665C29.1261 26.8077 28.4229 27.3276 27.6388 27.6961C26.8548 28.0646 26.0055 28.2744 25.1398 28.3135H25.1445Z" fill="url(#paint0_linear_196_222)"/>
<defs>
<linearGradient id="paint0_linear_196_222" x1="75" y1="0.689453" x2="74.4251" y2="191.795" gradientUnits="userSpaceOnUse">
<stop stop-color="#68FFE5"/>
<stop offset="1" stop-color="#59C7EA"/>
</linearGradient>
</defs>
</svg>
