<svg width="150" height="148" viewBox="0 0 150 148" fill="none" xmlns="http://www.w3.org/2000/svg">
<path d="M88.9805 1.7833L94.5913 3.00124L99.1294 4.60524L102.8 6.44363L105.594 8.41071L107.707 10.4927L109.26 12.5701L110.253 14.5877L110.864 16.4261L111.13 18.0071L111.256 19.2527L111.181 20.0432V52.7666L110.864 56.6226L110.062 60.0007L108.751 62.8272L107.147 65.1482L105.281 67.0371L103.243 68.5676L101.056 69.7442L98.8682 70.6036L96.83 71.2287L94.9644 71.6331L93.36 71.8951L92.0494 72.0192H54.905L50.6328 72.3271L46.9622 73.1682L43.8512 74.5332L41.3 76.1832L39.2339 78.1502L37.5548 80.2782L36.3188 82.5072L35.3907 84.7547L34.761 86.9056L34.3273 88.8727L34.0801 90.5226L33.9635 91.8141V110.561H20.088L18.7821 110.364L17.0284 109.936L15.0648 109.219L12.8774 108.116L10.6433 106.517L8.40925 104.311L6.22182 101.484L4.23028 97.867L2.4766 93.3951L1.18933 88.0086L0.317154 81.5697L0 74.0322L0.368459 66.5638L1.3619 60.1983L2.86838 54.8624L4.85992 50.5054L7.09866 47.0124L9.57526 44.3284L12.2011 42.2923L14.799 40.8354L17.2989 39.8565L19.5376 39.2314L21.5292 38.9189L23.0077 38.8683H24.0011L24.3929 38.9189H75.1143V33.8449H38.7954L38.7441 16.9914L38.6275 14.7164L38.9447 12.6344L39.621 10.7455L40.6657 9.01738L42.2188 7.44096L44.1637 6.0254L46.5144 4.80746L49.2615 3.68144L52.4191 2.77603L56.0384 2.03608L59.9935 1.434L64.415 1.05254L69.2049 0.813545L74.4287 0.689453L82.3202 1.00198L88.9805 1.7833ZM49.8212 13.9167L48.3847 15.9252L47.8763 18.4392L48.3847 20.9578L49.8212 23.0352L51.8594 24.4002L54.4106 24.9517L56.9618 24.4002L59 23.0352L60.4366 20.9578L60.9449 18.4392L60.4366 15.9252L59 13.9167L56.9618 12.5747L54.4106 12.0278L51.8594 12.5747L49.8212 13.9167ZM131.223 38.1146L132.944 38.5007L134.935 39.2176L137.123 40.3207L139.357 41.9706L141.595 44.1261L143.778 46.9986L145.77 50.6065L147.5 55.0876L148.811 60.4971L149.683 66.8625L150 74.3999L149.613 81.9419L148.61 88.3074L147.132 93.5698L145.14 97.9268L142.901 101.42L140.401 104.177L137.804 106.186L135.178 107.67L132.701 108.649L130.462 109.201L128.471 109.513L126.992 109.628L125.999 109.559H74.8624V114.583H111.181L111.256 131.51L111.372 133.711L111.055 135.793L110.379 137.682L109.311 139.452L107.758 140.982L105.841 142.471L103.486 143.689L100.738 144.742L97.5809 145.647L93.9616 146.437L89.9832 146.989L85.585 147.416L80.7718 147.655L75.548 147.729L67.6565 147.49L61.0009 146.626L55.4087 145.408L50.8706 143.877L47.2 142.034L44.4063 139.998L42.2935 137.916L40.7403 135.839L39.7469 133.821L39.1126 131.983L38.8701 130.453L38.7441 129.225L38.7954 128.44V95.7161L39.1126 91.7865L39.9381 88.4591L41.2254 85.6601L42.8531 83.3115L44.7188 81.3766L46.7663 79.8921L48.949 78.665L51.1132 77.8055L53.1793 77.1805L55.0496 76.8266L56.6494 76.5876L58.7622 76.39H95.081L99.3766 76.082L103.047 75.241L106.158 73.9495L108.709 72.226L110.757 70.2589L112.431 68.131L113.695 65.9019L114.623 63.7005L115.253 61.5679L115.696 59.6054L115.939 57.8819L116.055 56.5905V37.8434H129.054L129.931 37.894L131.223 38.1146ZM90.9673 125.438L89.5308 127.474L89.0457 129.993L89.5308 132.507L90.9673 134.515L93.0335 135.926L95.5847 136.404L98.1359 135.926L100.174 134.515L101.611 132.507L102.119 129.993L101.611 127.474L100.174 125.438L98.1359 124.027L95.5847 123.549L93.0335 124.027L90.9673 125.438Z" fill="url(#paint0_linear_196_239)"/>
<defs>
<linearGradient id="paint0_linear_196_239" x1="75" y1="0.689453" x2="75" y2="147.729" gradientUnits="userSpaceOnUse">
<stop stop-color="#68FFE5"/>
<stop offset="1" stop-color="#3DC9F5"/>
</linearGradient>
</defs>
</svg>
