<svg width="188" height="155" viewBox="0 0 188 155" fill="none" xmlns="http://www.w3.org/2000/svg">
<g clip-path="url(#clip0_197_369)">
<path d="M31.3333 18.1111V103.667H70.5V69.4446C70.5 64.9063 72.1506 60.5541 75.0885 57.3449C78.0268 54.1361 82.0116 52.3333 86.1668 52.3333H125.333C129.488 52.3333 133.473 54.1361 136.412 57.3449C139.349 60.5541 141 64.9063 141 69.4446V103.667H156.667V18.1111H31.3333ZM0 137.889V120.778H31.3333C27.1783 120.778 23.1934 118.975 20.2553 115.766C17.3173 112.557 15.6667 108.205 15.6667 103.667V18.1111C15.6667 13.573 17.3173 9.22071 20.2553 6.01172C23.1934 2.80277 27.1783 1 31.3333 1H156.667C160.822 1 164.807 2.80277 167.745 6.01172C170.683 9.22071 172.333 13.573 172.333 18.1111V103.667C172.333 108.205 170.683 112.557 167.745 115.766C164.807 118.975 160.822 120.778 156.667 120.778H188V137.889H141C141 142.427 139.349 146.779 136.412 149.988C133.473 153.197 129.488 155 125.333 155H86.1668C82.0116 155 78.0268 153.197 75.0885 149.988C72.1506 146.779 70.5 142.427 70.5 137.889H0ZM90.0832 137.889C89.0445 137.889 88.0485 138.34 87.314 139.142C86.5791 139.944 86.1668 141.032 86.1668 142.167C86.1668 143.301 86.5791 144.389 87.314 145.192C88.0485 145.994 89.0445 146.445 90.0832 146.445C91.1219 146.445 92.1183 145.994 92.8528 145.192C93.5873 144.389 94 143.301 94 142.167C94 141.032 93.5873 139.944 92.8528 139.142C92.1183 138.34 91.1219 137.889 90.0832 137.889ZM121.417 137.889C120.378 137.889 119.382 138.34 118.647 139.142C117.913 139.944 117.5 141.032 117.5 142.167C117.5 143.301 117.913 144.389 118.647 145.192C119.382 145.994 120.378 146.445 121.417 146.445C122.456 146.445 123.451 145.994 124.186 145.192C124.921 144.389 125.333 143.301 125.333 142.167C125.333 141.032 124.921 139.944 124.186 139.142C123.451 138.34 122.456 137.889 121.417 137.889ZM101.833 137.889V146.445H109.667V137.889H101.833ZM86.1668 69.4446V129.333H125.333V69.4446H86.1668Z" fill="url(#paint0_linear_197_369)"/>
</g>
<defs>
<linearGradient id="paint0_linear_197_369" x1="94" y1="1" x2="94" y2="218" gradientUnits="userSpaceOnUse">
<stop stop-color="#68FFE5"/>
<stop offset="1" stop-color="#3DC9F5"/>
</linearGradient>
<clipPath id="clip0_197_369">
<rect width="188" height="154" fill="white" transform="translate(0 0.689453)"/>
</clipPath>
</defs>
</svg>
