<svg width="150" height="168" viewBox="0 0 150 168" fill="none" xmlns="http://www.w3.org/2000/svg">
<path d="M6.38298 84.3039H134.043C135.735 84.3039 137.359 83.5698 138.556 82.2631C139.753 80.9563 140.426 79.184 140.426 77.336V56.4324C140.426 55.5171 140.262 54.6106 139.941 53.7648C139.621 52.9189 139.151 52.1502 138.559 51.5027L93.8777 2.72756C93.2844 2.0807 92.5803 1.56777 91.8054 1.21806C91.0306 0.868359 90.2002 0.688736 89.3617 0.689455H12.766C9.38022 0.689455 6.13314 2.15768 3.73906 4.77114C1.34498 7.3846 0 10.9292 0 14.6252V77.336C0 79.184 0.672492 80.9563 1.86953 82.2631C3.06657 83.5698 4.69011 84.3039 6.38298 84.3039ZM89.3617 18.1091L124.468 56.4324H89.3617V18.1091ZM150 160.95C150 162.798 149.328 164.571 148.13 165.878C146.933 167.184 145.31 167.918 143.617 167.918H121.277C119.584 167.918 117.96 167.184 116.763 165.878C115.566 164.571 114.894 162.798 114.894 160.95V112.175C114.894 110.327 115.566 108.555 116.763 107.248C117.96 105.942 119.584 105.208 121.277 105.208C122.969 105.208 124.593 105.942 125.79 107.248C126.987 108.555 127.66 110.327 127.66 112.175V153.983H143.617C145.31 153.983 146.933 154.717 148.13 156.023C149.328 157.33 150 159.102 150 160.95ZM41.3457 150.769C41.097 153.434 40.3104 156.005 39.0426 158.299C37.7747 160.593 36.0572 162.551 34.0133 164.034C29.8723 167.047 24.734 167.918 20.0585 167.918C15.9808 167.895 11.9221 167.31 7.97872 166.176C6.36767 165.661 5.00736 164.474 4.19241 162.872C3.37746 161.27 3.1735 159.382 3.62469 157.617C4.07589 155.852 5.14592 154.352 6.60302 153.441C8.06012 152.531 9.78698 152.285 11.4096 152.755C14.9043 153.8 23.3378 155.106 27.008 152.441C27.7181 151.927 28.4681 151.117 28.7154 149.018C28.9947 146.692 28.1489 145.447 18.5186 142.407C11.0585 140.056 -1.42819 136.11 0.167552 122.279C0.415914 119.666 1.188 117.145 2.42901 114.895C3.67003 112.644 5.34955 110.72 7.3484 109.258C16.7952 102.29 31.859 106.375 33.5426 106.854C34.3535 107.087 35.1145 107.492 35.7819 108.047C36.4494 108.601 37.0103 109.294 37.4326 110.085C37.8549 110.876 38.1303 111.75 38.2432 112.657C38.3561 113.564 38.3042 114.487 38.0904 115.372C37.8767 116.257 37.5053 117.088 36.9975 117.816C36.4896 118.545 35.8553 119.157 35.1307 119.618C34.4061 120.079 33.6055 120.38 32.7744 120.503C31.9434 120.627 31.0982 120.57 30.2872 120.337C26.7048 119.317 18.1436 118.107 14.4734 120.824C13.9923 121.179 13.5962 121.654 13.3185 122.21C13.0408 122.766 12.8896 123.387 12.8777 124.021C12.7819 124.805 12.766 124.961 13.7713 125.676C15.6144 126.973 18.9096 128.01 22.109 129.02C29.9202 131.485 43.133 135.692 41.3457 150.769ZM97.9947 153.582C100.717 148.403 102.142 142.534 102.128 136.563C102.128 119.274 90.6782 105.208 76.5957 105.208C62.5133 105.208 51.0638 119.274 51.0638 136.563C51.0638 153.852 62.5133 167.918 76.5957 167.918C81.1046 167.901 85.5117 166.455 89.2819 163.755L91.2287 165.88C92.4264 167.187 94.0505 167.92 95.7435 167.919C97.4366 167.918 99.06 167.183 100.257 165.876C101.453 164.568 102.125 162.796 102.124 160.947C102.124 159.099 101.45 157.327 100.253 156.021L97.9947 153.582ZM76.5957 153.983C69.5585 153.983 63.8298 146.144 63.8298 136.563C63.8298 126.982 69.5585 119.143 76.5957 119.143C83.633 119.143 89.3617 126.982 89.3617 136.563C89.3627 138.784 89.0451 140.991 88.4202 143.104L87.4867 142.085C86.8937 141.438 86.1897 140.925 85.4151 140.575C84.6404 140.226 83.8102 140.046 82.9719 140.046C81.2789 140.047 79.6554 140.782 78.4588 142.089C77.2621 143.397 76.5903 145.17 76.591 147.018C76.5918 148.866 77.2651 150.638 78.4628 151.945L79.8032 153.399C78.769 153.777 77.6864 153.974 76.5957 153.983Z" fill="url(#paint0_linear_196_225)"/>
<defs>
<linearGradient id="paint0_linear_196_225" x1="75" y1="0.689453" x2="75.0388" y2="285.092" gradientUnits="userSpaceOnUse">
<stop stop-color="#2A2D5A"/>
<stop offset="0.0001" stop-color="#68FFE5"/>
<stop offset="1" stop-color="#3DC9F5"/>
</linearGradient>
</defs>
</svg>
